<?xml version="1.0" standalone="no"?>
<!DOCTYPE svg PUBLIC "-//W3C//DTD SVG 20010904//EN"
 "http://www.w3.org/TR/2001/REC-SVG-20010904/DTD/svg10.dtd">
<svg version="1.0" xmlns="http://www.w3.org/2000/svg"
 width="976.000000pt" height="976.000000pt" viewBox="0 0 976.000000 976.000000"
 preserveAspectRatio="xMidYMid meet">
<metadata>
Created by potrace 1.14, written by Peter Selinger 2001-2017
</metadata>
<g transform="translate(0.000000,976.000000) scale(0.100000,-0.100000)"
fill="#000000" stroke="none">
<path d="M3506 8059 c-176 -43 -324 -155 -420 -318 -18 -31 -701 -1180 -1519
-2553 -817 -1373 -1495 -2515 -1507 -2538 -32 -62 -60 -185 -60 -259 0 -93 23
-190 66 -279 51 -107 177 -233 284 -284 159 -77 59 -72 1365 -76 1226 -3 1436
1 1653 38 487 83 884 293 1215 640 213 224 160 141 1342 2128 380 639 694
1160 698 1159 8 -2 1752 -2923 1764 -2954 4 -10 -235 -13 -1174 -13 l-1179 0
-292 -490 c-161 -269 -292 -494 -292 -500 0 -7 545 -10 1848 -8 2074 4 1881
-4 2052 80 119 58 222 162 278 279 50 105 65 171 65 279 -1 95 -22 189 -59
262 -42 82 -2434 4099 -2480 4165 -60 84 -134 146 -229 193 -103 51 -189 72
-295 73 -182 0 -338 -61 -463 -182 -68 -65 -75 -75 -413 -645 -168 -281 -308
-512 -313 -514 -4 -1 -284 462 -622 1030 -598 1008 -615 1035 -694 1113 -166
167 -391 230 -619 174z m754 -2334 c350 -591 579 -986 577 -997 -10 -38 -817
-1380 -883 -1468 -228 -303 -489 -456 -854 -500 -66 -7 -355 -10 -946 -8
l-851 3 1180 1983 c649 1090 1184 1979 1188 1975 4 -4 269 -449 589 -988z"/>
</g>
</svg>
