<svg width="15.626953" height="13.129150" viewBox="0 0 15.627 13.1292" fill="none" xmlns="http://www.w3.org/2000/svg" xmlns:xlink="http://www.w3.org/1999/xlink">
	<path class="lang-switcher-dropdown" id="Vector" d="M15.3516 7.229L9.72656 12.854C9.54883 13.03 9.31055 13.1292 9.0625 13.1292C8.8125 13.1292 8.57422 13.03 8.39844 12.854C8.2207 12.6777 8.12305 12.439 8.12305 12.1899C8.12305 11.9409 8.2207 11.7019 8.39844 11.5259L12.4219 7.50317L0.9375 7.50317C0.689453 7.50317 0.451172 7.4043 0.275391 7.22852C0.0996094 7.05273 0 6.81421 0 6.56567C0 6.31714 0.0996094 6.07861 0.275391 5.90283C0.451172 5.72705 0.689453 5.62817 0.9375 5.62817L12.4219 5.62817L8.39844 1.60327C8.22266 1.427 8.125 1.18823 8.125 0.939209C8.125 0.689941 8.22266 0.451172 8.39844 0.275146C8.57617 0.098877 8.81445 0 9.0625 0C9.3125 0 9.55078 0.098877 9.72656 0.275146L15.3516 5.90015C15.4395 5.9873 15.5098 6.09082 15.5566 6.20508C15.6035 6.31909 15.627 6.44141 15.627 6.56494C15.627 6.68823 15.6035 6.81055 15.5547 6.92456C15.5078 7.03857 15.4375 7.14185 15.3516 7.229Z" fill="#00B4F1" fill-opacity="1.000000" fill-rule="nonzero"/>
</svg>
