<svg width="23.000000" height="23.000000" viewBox="0 0 23 23" fill="none" xmlns="http://www.w3.org/2000/svg" xmlns:xlink="http://www.w3.org/1999/xlink">
	<desc>
			Created with Pixso.
	</desc>
	<defs/>
	<path id="Vector" d="M11.33 17L4.25 9.91L6.23 7.86L9.91 11.54L9.91 0L12.75 0L12.75 11.54L16.43 7.86L18.41 9.91L11.33 17ZM2.83 22.66C2.05 22.66 1.38 22.38 0.83 21.83C0.27 21.28 0 20.61 0 19.83L0 15.58L2.83 15.58L2.83 19.83L19.83 19.83L19.83 15.58L22.66 15.58L22.66 19.83C22.66 20.61 22.38 21.27 21.83 21.83C21.28 22.39 20.61 22.66 19.83 22.66L2.83 22.66Z" fill="#2490CD" fill-opacity="1.000000" fill-rule="nonzero"/>
</svg>
