<svg width="15.000000" height="14.968750" viewBox="0 0 15 14.9688" fill="none" xmlns="http://www.w3.org/2000/svg" xmlns:xlink="http://www.w3.org/1999/xlink">
	<desc>
			Created with Pixso.
	</desc>
	<defs/>
	<path id="Vector" d="M11.9624 0.28125L14.7144 3.0332C14.8042 3.12305 14.876 3.22852 14.9253 3.3457C14.9741 3.46289 14.9995 3.58789 15 3.71484C15.0005 3.8418 14.9756 3.96875 14.9277 4.08594C14.8794 4.20312 14.8086 4.30859 14.7188 4.40039L13.189 5.92969L9.0708 1.81055L10.6006 0.28125C10.7812 0.101562 11.0264 0 11.2812 0C11.5366 0 11.7817 0.101562 11.9624 0.28125ZM0.0219727 13.7969L0.908203 9.97266L8.26855 2.60352L12.3916 6.7168L5.00342 14.0781L1.15576 14.9629C1.08887 14.9707 1.02148 14.9707 0.955078 14.9629C0.812012 14.9629 0.670898 14.9297 0.541992 14.8672C0.413086 14.8047 0.299805 14.7148 0.210449 14.6035C0.121094 14.4922 0.0576172 14.3613 0.0253906 14.2227C-0.00732422 14.082 -0.00830078 13.9375 0.0219727 13.7969Z" fill="#0C91DE" fill-opacity="1.000000" fill-rule="evenodd"/>
</svg>
