<svg width="50.000000" height="50.000000" viewBox="0 0 50 50" fill="none" xmlns="http://www.w3.org/2000/svg" xmlns:xlink="http://www.w3.org/1999/xlink">
	<desc>
			Created with Pixso.
	</desc>
	<defs>
		<clipPath id="clip6060_2119">
			<rect id="ion:eye" width="50.000000" height="50.000000" fill="white" fill-opacity="0"/>
		</clipPath>
	</defs>
	<rect id="ion:eye" width="50.000000" height="50.000000" fill="#FFFFFF" fill-opacity="0"/>
	<g clip-path="url(#clip6060_2119)">
		<path id="Vector" d="M31.25 25C31.25 28.45 28.45 31.25 25 31.25C21.54 31.25 18.75 28.45 18.75 25C18.75 21.54 21.54 18.75 25 18.75C28.45 18.75 31.25 21.54 31.25 25Z" fill="#FFFFFF" fill-opacity="1.000000" fill-rule="evenodd"/>
		<path id="Vector" d="M47.93 23.3C45.34 19.3 41.99 15.91 38.23 13.48C34.08 10.79 29.49 9.37 24.96 9.37C20.81 9.37 16.73 10.56 12.83 12.9C8.85 15.28 5.25 18.77 2.12 23.25C1.76 23.76 1.57 24.36 1.56 24.98C1.54 25.6 1.72 26.21 2.05 26.73C4.63 30.76 7.95 34.16 11.65 36.55C15.82 39.25 20.3 40.62 24.96 40.62C29.52 40.62 34.12 39.21 38.26 36.55C42.02 34.13 45.36 30.72 47.94 26.69C48.26 26.18 48.43 25.59 48.43 24.99C48.43 24.39 48.25 23.8 47.93 23.3ZM25 34.37C23.14 34.37 21.33 33.82 19.79 32.79C18.25 31.76 17.04 30.3 16.33 28.58C15.62 26.87 15.44 24.98 15.8 23.17C16.16 21.35 17.05 19.68 18.37 18.37C19.68 17.05 21.35 16.16 23.17 15.8C24.98 15.44 26.87 15.62 28.58 16.33C30.3 17.04 31.76 18.25 32.79 19.79C33.82 21.33 34.37 23.14 34.37 25C34.37 27.48 33.38 29.86 31.62 31.62C29.86 33.38 27.48 34.37 25 34.37Z" fill="#FFFFFF" fill-opacity="1.000000" fill-rule="nonzero"/>
	</g>
</svg>
